<svg xmlns="http://www.w3.org/2000/svg" class="svg" viewBox="0 0 729.2 177.8" preserveAspectRatio="xMidYMid meet"><g id="draw"><path id="cloud" class="cloud" d="M173.1,85.3c0.5-2.2,0.7-4.4,0.7-6.7c0-17.1-13.9-31-31-31c-2.8,0-5.4,0.4-8,1c-4.8-15-18.9-25.9-35.5-25.9
c-16.9,0-31.2,11.3-35.8,26.8c-4.4-1.3-9.1-2-13.9-2C22.2,47.6,0,69.8,0,97.2c0,27.4,22.2,49.7,49.6,49.7h117.9
c17.1,0,31-13.9,31-31C198.6,100.6,187.6,87.9,173.1,85.3z"></path><polygon id="rec3" class="rect recDark" points="100.9,122.9 71.6,66.5 114.1,65.2 138.9,121.2 "></polygon><polygon id="rec1" class="rect recDark" points="43,122.8 24.1,89.8 58.1,89.8 71.4,122.2 "></polygon><polygon id="rec2" class="rect rec" points="84.9,122.9 114.1,65.2 72.2,65.2 43,122.9 "></polygon><polygon id="arrow" class="rect rec" points="142.9,122.9 180.4,58.2 198.5,68.7 189.9,0 126,26.7 144.1,37.2 100.6,122.9 "></polygon><g class="letters"><path d="M223.1,53.7V40.1h91.1v13.6h-36.9V147h-17.2V53.7H223.1z"></path><path class="st0" d="M354.2,99.4c0-16-2.1-18.1-17.6-18.1h-36.7V69H340c13.9,0,20.4,1.9,24.8,7.2c3.8,4.5,5,9.6,5,21.5V147h-39.6
c-15.2,0-19.7-1-25.2-5.1c-5.1-4.2-8-10.6-8-18.3c0-9.3,3.8-17.3,10.3-21c3.8-2.2,9.6-3.2,19.2-3.2H354.2z M328.3,111.8
c-11.1,0-15.2,3.2-15.2,11.5s4.2,11.4,15.2,11.4h26v-22.9H328.3z"></path><path class="st0" d="M449.7,138.2c-0.2,14.9-0.2,14.9-0.6,18.6c-0.8,6.6-5,11.2-11.9,13.3c-5,1.4-8.7,1.8-18.9,1.8h-33.3v-12.3
h35.7c11.9,0,13.5-1.1,13.5-9.6V147h-16.7c-15.7,0-19.2-0.6-25.8-4.5c-9.9-5.9-15.2-17.3-15.2-32.7c0-12.8,3.5-23.7,9.9-30.9
c6.6-7.5,14.3-9.9,31.1-9.9h32.2V138.2z M418.6,81.3c-13,0-17.6,1.8-21.5,7.9c-2.7,4.3-4.6,13-4.6,20.5c0,7.7,2.2,15.1,5.8,19.2
c3.7,4.3,7.9,5.8,17.6,5.8h18.3V81.3H418.6z"></path><path class="st0" d="M480.5,147h-17.2V40.1h47.3c15.1,0,22.3,2.2,29,8.7c6.1,5.9,9.1,14.4,9.1,25c0,12-4.3,22.3-11.9,28.2
c-5.8,4.5-14.3,6.3-29.5,6.3h-26.9V147z M508.5,94.6c8.7,0,13.6-1.4,17-5c3-3.2,5-9.6,5-16.2c0-6.6-2.1-12.3-5.8-15.7
c-3-2.9-7.9-4-16.8-4h-27.4v40.9H508.5z"></path><path class="st0" d="M554.4,147V40.1H570V147H554.4z"></path><path class="st0" d="M633.6,69h15.5V147h-34c-17.2,0-23.6-2.4-29-10.7c-3.2-5-4.3-10.3-4.3-21.2V69h15.5v45.5
c0,8,0.5,11.2,2.2,14.1c2.4,4.3,7.5,6.1,16.8,6.1h17.2V69z"></path><path class="st0" d="M725.8,81.3h-35.1c-10.9,0-12.5,0.3-14.4,2.4c-1.6,1.8-2.6,4.8-2.6,8.5c0,7.9,2.6,9.5,15.4,9.5h10.6
c17.8,0.2,18.4,0.3,22.1,2.7c4.6,3.2,7.4,10.3,7.4,19.2c0,10.6-3.8,18.3-10.6,21.3c-3.7,1.8-6.9,2.1-18.9,2.1h-41.2v-12.3H696
c8.2,0,11.7-0.3,13.5-1.1c2.6-1.1,3.7-4,3.7-8.7c0-5.3-1.6-8-5-8.8c-1.6-0.3-4.2-0.5-11.2-0.5h-6.3c-17.2,0-20.7-0.6-25.2-4.6
c-5-4.2-7.9-11.2-7.9-18.9c0-9.3,4-16.8,10.7-20.2c4-2.1,9.5-2.9,18.1-2.9h39.3V81.3z"></path></g></g></svg>
